# xmcd
# 
# Track frame offsets:
#     150
#     15429
#     24618
#     37193
#     51702
#     63591
#     79330
#     96307
#     109239
#     125703
#     140398
#     160308
#     174690
#     191144
#     203789
#     215429
# 
# Disc length: 3040
# 
# Revision: 0
# Processed by: cddbd v1.5.2PL0 Copyright (c) Steve Scherf et al.
# Submitted via: fre:ac v1.0.17
# 
DISCID=f70bde10
DTITLE=The Stephen Barry Band - Chicken Stuff
DYEAR=1998
DGENRE=Blues
TTITLE0=I'll Be Around
TTITLE1=Chicken Stuff
TTITLE2=East St. Louis Blues
TTITLE3=Six Weeks Old
TTITLE4=Hey Hey
TTITLE5=It Takes Time
TTITLE6=Shake Em On Down
TTITLE7=White Noise Rain
TTITLE8=Shady Lane
TTITLE9=18-XII-49
TTITLE10=You Know My Love
TTITLE11=Happy Payday
TTITLE12=Dearest Darling
TTITLE13=Goodbye Love
TTITLE14=Lonely Man
TTITLE15=Only Jerks Care
EXTD=
EXTT0=
EXTT1=
EXTT2=
EXTT3=
EXTT4=
EXTT5=
EXTT6=
EXTT7=
EXTT8=
EXTT9=
EXTT10=
EXTT11=
EXTT12=
EXTT13=
EXTT14=
EXTT15=
PLAYORDER=
